<svg width="18" height="18" viewBox="0 0 18 18" fill="none" xmlns="http://www.w3.org/2000/svg">
<path d="M0.599109 15.6924C0.240708 16.0508 0.237426 16.6352 0.591779 16.9976C0.946132 17.36 1.52393 17.3632 1.88234 17.0048L0.599109 15.6924ZM17.5288 0.978238C17.5317 0.46855 17.1254 0.0530727 16.6214 0.0502427L8.40837 0.0041172C7.90438 0.00128706 7.49349 0.412175 7.49063 0.921862C7.48777 1.43155 7.89401 1.84703 8.39801 1.84986L15.6985 1.89086L15.657 9.27382C15.6542 9.7835 16.0604 10.199 16.5644 10.2018C17.0684 10.2046 17.4793 9.79375 17.4822 9.28407L17.5288 0.978238ZM1.88234 17.0048L17.2579 1.6293L15.9746 0.316921L0.599109 15.6924L1.88234 17.0048Z" fill="black"/>
</svg>
