<svg width="18" height="19" viewBox="0 0 18 19" fill="none" xmlns="http://www.w3.org/2000/svg">
<path d="M2.39049 0.939457C2.05345 0.560901 1.47029 0.523785 1.08797 0.856556C0.705652 1.18933 0.66895 1.76597 1.00599 2.14453L2.39049 0.939457ZM16.0996 18.6929C16.6082 18.7253 17.0465 18.3437 17.0785 17.8408L17.6002 9.64416C17.6322 9.14118 17.2458 8.70719 16.7372 8.67481C16.2285 8.64244 15.7902 9.02394 15.7582 9.52692L15.2945 16.8128L7.9263 16.3438C7.41763 16.3115 6.97933 16.693 6.94731 17.1959C6.9153 17.6989 7.3017 18.1329 7.81037 18.1653L16.0996 18.6929ZM1.00599 2.14453L15.4653 18.3847L16.8498 17.1796L2.39049 0.939457L1.00599 2.14453Z" fill="black"/>
</svg>
